HIERARCHY
ROOT hip
{
	OFFSET 0.000000 0.000000 0.000000
	CHANNELS 6 Xposition Yposition Zposition Xrotation Zrotation Yrotation 
	JOINT abdomen
	{
		OFFSET 0.000000 3.422050 0.000000
		CHANNELS 3 Xrotation Zrotation Yrotation 
		JOINT chest
		{
			OFFSET 0.000000 8.486693 -0.684411
			CHANNELS 3 Xrotation Zrotation Yrotation 
			JOINT neck
			{
				OFFSET 0.000000 10.266162 -0.273764
				CHANNELS 3 Xrotation Zrotation Yrotation 
				JOINT head
				{
					OFFSET 0.000000 3.148285 0.000000
					CHANNELS 3 Xrotation Zrotation Yrotation 
					End Site
					{
						OFFSET 0.000000 3.148289 0.000000
					}
				}
			}
			JOINT lCollar
			{
				OFFSET 3.422053 6.707223 -0.821293
				CHANNELS 3 Yrotation Zrotation Xrotation 
				JOINT lShldr
				{
					OFFSET 3.285171 0.000000 0.000000
					CHANNELS 3 Zrotation Yrotation Xrotation 
					JOINT lForeArm
					{
						OFFSET 10.129278 0.000000 0.000000
						CHANNELS 3 Yrotation Zrotation Xrotation 
						JOINT lHand
						{
							OFFSET 8.486692 0.000000 0.000000
							CHANNELS 3 Zrotation Yrotation Xrotation 
							End Site
							{
								OFFSET 4.106464 0.000000 0.000000
							}
						}
					}
				}
			}
			JOINT rCollar
			{
				OFFSET -3.558935 6.707223 -0.821293
				CHANNELS 3 Yrotation Zrotation Xrotation 
				JOINT rShldr
				{
					OFFSET -3.148289 0.000000 0.000000
					CHANNELS 3 Zrotation Yrotation Xrotation 
					JOINT rForeArm
					{
						OFFSET -10.266159 0.000000 0.000000
						CHANNELS 3 Yrotation Zrotation Xrotation 
						JOINT rHand
						{
							OFFSET -8.349810 0.000000 0.000000
							CHANNELS 3 Zrotation Yrotation Xrotation 
							End Site
							{
								OFFSET -4.106464 0.000000 0.000000
							}
						}
					}
				}
			}
		}
	}
	JOINT lThigh
	{
		OFFSET 5.338403 -1.642589 1.368821
		CHANNELS 3 Xrotation Zrotation Yrotation 
		JOINT lShin
		{
			OFFSET -2.053232 -20.121670 0.000000
			CHANNELS 3 Xrotation Zrotation Yrotation 
			JOINT lFoot
			{
				OFFSET 0.000000 -19.300380 -1.231939
				CHANNELS 3 Xrotation Yrotation Zrotation 
				End Site
				{
					OFFSET 0.000000 -2.463878 4.653993
				}
			}
		}
	}
	JOINT rThigh
	{
		OFFSET -5.338403 -1.642589 1.368821
		CHANNELS 3 Xrotation Zrotation Yrotation 
		JOINT rShin
		{
			OFFSET 2.053232 -20.121670 0.000000
			CHANNELS 3 Xrotation Zrotation Yrotation 
			JOINT rFoot
			{
				OFFSET 0.000000 -19.300380 -1.231939
				CHANNELS 3 Xrotation Yrotation Zrotation 
				End Site
				{
					OFFSET 0.000000 -2.463878 4.653993
				}
			}
		}
	}
}
MOTION
Frames: 18
Frame Time: 0.066530
0.000000 9.997749 0.000000 -26.001497 0.000000 0.000000 29.998037 1.997883 -35.001030 19.998167 0.000000 0.000000 -0.102506 -0.232541 15.601604 -10.001486 22.049604 -26.002991 0.071690 0.000000 0.000000 61.190121 -66.173042 -19.535011 -78.980591 -4.831720 18.017986 6.400450 -10.015700 -42.360794 0.000000 0.000000 0.000000 -30.000832 37.995827 -47.000267 0.000000 0.000000 0.000000 0.000000 0.000000 0.000000 -110.024002 0.000000 0.000000 130.994461 -0.000002 0.000001 0.068189 0.000000 0.000000 -76.542648 -18.240345 -2.592149 28.352970 -0.000000 0.000000 32.035011 0.000000 0.000000 
0.000000 9.997749 0.000000 -26.001497 0.000000 0.000000 29.998037 1.997883 -35.001030 19.998167 0.000000 0.000000 -0.104266 -0.237117 15.497556 -10.001483 22.197678 -26.002998 0.071690 0.000000 0.000000 60.498081 -65.984932 -19.376831 -79.104507 -4.818876 17.894199 6.335533 -9.967866 -42.075459 0.000000 0.000000 0.000000 -30.000832 37.995827 -47.000263 0.000000 0.000000 0.000000 0.000000 0.000000 0.000000 -110.024002 0.000000 0.000000 130.994461 -0.000002 0.000001 0.068189 0.000000 0.000000 -75.890488 -18.101068 -2.458004 26.399920 -0.000000 0.000000 32.651009 0.000000 0.000000 
0.000000 9.997749 0.000000 -26.001497 0.000000 0.000000 29.998037 1.997883 -35.001030 19.998167 0.000000 0.000000 -0.106018 -0.241697 15.393499 -10.001483 22.345734 -26.003014 0.071690 0.000000 0.000000 59.811058 -65.795700 -19.225067 -79.228409 -4.805757 17.770401 6.270825 -9.919681 -41.790039 0.000000 0.000000 0.000000 -30.000832 37.995827 -47.000263 0.000000 0.000000 0.000000 0.000000 0.000000 0.000000 -110.024002 0.000000 0.000000 130.994461 -0.000002 0.000001 0.068189 0.000000 0.000000 -75.239433 -17.963453 -2.322505 24.469263 -0.000000 0.000000 33.266361 0.000000 0.000000 
0.000000 9.997749 0.000000 -26.001497 0.000000 0.000000 29.998037 1.997883 -35.001030 19.998167 0.000000 0.000000 -0.107762 -0.246280 15.289430 -10.001482 22.493763 -26.003025 0.071690 0.000000 0.000000 59.129070 -65.605400 -19.079687 -79.352318 -4.792371 17.646601 6.206335 -9.871153 -41.504543 0.000000 0.000000 0.000000 -30.000832 37.995827 -47.000263 0.000000 0.000000 0.000000 0.000000 0.000000 0.000000 -110.024002 0.000000 0.000000 130.994461 -0.000002 0.000001 0.068189 0.000000 0.000000 -74.589531 -17.827511 -2.185683 22.561707 -0.000000 0.000000 33.881042 0.000000 0.000000 
0.000000 9.997749 0.000000 -26.001497 0.000000 0.000000 29.998037 1.997883 -35.001030 19.998167 0.000000 0.000000 -0.109498 -0.250867 15.185356 -10.001478 22.641760 -26.003035 0.071690 0.000000 0.000000 58.451996 -65.414078 -18.940552 -79.476242 -4.778714 17.522800 6.142064 -9.822279 -41.218990 0.000000 0.000000 0.000000 -30.000832 37.995827 -47.000263 0.000000 0.000000 0.000000 0.000000 0.000000 0.000000 -110.024002 0.000000 0.000000 130.994461 -0.000002 0.000001 0.068189 0.000000 0.000000 -73.940788 -17.693264 -2.047575 20.677855 -0.000000 0.000000 34.494995 0.000000 0.000000 
0.000000 9.997749 0.000000 -26.001497 0.000000 0.000000 29.998037 1.997883 -35.001030 19.998167 0.000000 0.000000 -0.111225 -0.255457 15.081273 -10.001477 22.789738 -26.003044 0.071690 0.000000 0.000000 57.779789 -65.221741 -18.807613 -79.600159 -4.764784 17.398998 6.078015 -9.773065 -40.933376 0.000000 0.000000 0.000000 -30.000832 37.995827 -47.000263 0.000000 0.000000 0.000000 0.000000 0.000000 0.000000 -110.024002 0.000000 0.000000 130.994461 -0.000002 0.000001 0.068189 0.000000 0.000000 -73.293289 -17.560740 -1.908218 18.818293 -0.000000 0.000000 35.108204 0.000000 0.000000 
0.000000 9.997749 0.000000 -26.001497 0.000000 0.000000 29.998037 1.997883 -35.001030 19.998167 0.000000 0.000000 -0.112945 -0.260051 14.977186 -10.001477 22.937689 -26.003057 0.071690 0.000000 0.000000 57.112404 -65.028473 -18.680792 -79.724083 -4.750587 17.275198 6.014188 -9.723506 -40.647697 0.000000 0.000000 0.000000 -30.000832 37.995827 -47.000263 0.000000 0.000000 0.000000 0.000000 0.000000 0.000000 -110.024002 0.000000 0.000000 130.994461 -0.000002 0.000001 0.068189 0.000000 0.000000 -72.647041 -17.429947 -1.767648 16.983498 -0.000000 0.000000 35.720638 0.000000 0.000000 
0.000000 9.997749 0.000000 -26.001497 0.000000 0.000000 29.998037 1.997883 -35.001030 19.998167 0.000000 0.000000 -0.114656 -0.264648 14.873093 -10.001472 23.085608 -26.003065 0.071690 0.000000 0.000000 56.449753 -64.834259 -18.559982 -79.847977 -4.736116 17.151388 5.950588 -9.673610 -40.361954 0.000000 0.000000 0.000000 -30.000832 37.995827 -47.000263 0.000000 0.000000 0.000000 0.000000 0.000000 0.000000 -110.024002 0.000000 0.000000 130.994461 -0.000002 0.000001 0.068189 0.000000 0.000000 -72.002090 -17.300907 -1.625899 15.173909 -0.000000 0.000000 36.332237 0.000000 0.000000 
0.000000 9.997749 0.000000 -26.001497 0.000000 0.000000 29.998037 1.997883 -35.001030 19.998167 0.000000 0.000000 -0.116358 -0.269249 14.768987 -10.001471 23.233501 -26.003075 0.071690 0.000000 0.000000 55.791798 -64.639191 -18.445135 -79.971916 -4.721377 17.027592 5.887216 -9.623371 -40.076160 0.000000 0.000000 0.000000 -30.000832 37.995827 -47.000263 0.000000 0.000000 0.000000 0.000000 0.000000 0.000000 -110.024002 0.000000 0.000000 130.994461 -0.000002 0.000001 0.068189 0.000000 0.000000 -71.358467 -17.173639 -1.483013 13.389885 -0.000000 0.000000 36.943001 0.000000 0.000000 
0.000000 9.997749 0.000000 -26.001497 0.000000 0.000000 29.998037 1.997883 -35.001030 19.998167 0.000000 0.000000 -0.118053 -0.273853 14.664872 -10.001470 23.381374 -26.003086 0.071690 0.000000 0.000000 55.138439 -64.443268 -18.336121 -80.095818 -4.706366 16.903793 5.824077 -9.572797 -39.790321 0.000000 0.000000 0.000000 -30.000832 37.995827 -47.000263 0.000000 0.000000 0.000000 0.000000 0.000000 0.000000 -110.024002 0.000000 0.000000 130.994461 -0.000002 0.000001 0.068189 0.000000 0.000000 -70.716217 -17.048155 -1.339019 11.631744 -0.000000 0.000000 37.552887 0.000000 0.000000 
0.000000 9.997749 0.000000 -26.001497 0.000000 0.000000 29.998037 1.997883 -35.001030 19.998167 0.000000 0.000000 -0.119739 -0.278460 14.560757 -10.001469 23.529215 -26.003098 0.071690 0.000000 0.000000 54.489639 -64.246506 -18.232899 -80.219727 -4.691084 16.780001 5.761171 -9.521887 -39.504433 0.000000 0.000000 0.000000 -30.000832 37.995827 -47.000263 0.000000 0.000000 0.000000 0.000000 0.000000 0.000000 -110.024002 0.000000 0.000000 130.994461 -0.000002 0.000001 0.068189 0.000000 0.000000 -70.075401 -16.924480 -1.193959 9.899731 -0.000000 0.000000 38.161858 0.000000 0.000000 
0.000000 9.997749 0.000000 -26.001497 0.000000 0.000000 29.998037 1.997883 -35.001030 19.998167 0.000000 0.000000 -0.121417 -0.283071 14.456632 -10.001466 23.677025 -26.003107 0.071690 0.000000 0.000000 53.845352 -64.049004 -18.135382 -80.343628 -4.675532 16.656214 5.698503 -9.470643 -39.218502 0.000000 0.000000 0.000000 -30.000832 37.995827 -47.000263 0.000000 0.000000 0.000000 0.000000 0.000000 0.000000 -110.024002 0.000000 0.000000 130.994461 -0.000002 0.000001 0.068189 0.000000 0.000000 -69.436028 -16.802620 -1.047869 8.194042 -0.000000 0.000000 38.769882 0.000000 0.000000 
0.000000 9.997749 0.000000 -26.001497 0.000000 0.000000 29.998037 1.997883 -35.001030 19.998167 0.000000 0.000000 -0.123087 -0.287685 14.352500 -10.001466 23.824814 -26.003122 0.071690 0.000000 0.000000 53.205467 -63.850754 -18.043455 -80.467529 -4.659709 16.532433 5.636073 -9.419065 -38.932533 0.000000 0.000000 0.000000 -30.000832 37.995827 -47.000263 0.000000 0.000000 0.000000 0.000000 0.000000 0.000000 -110.024002 0.000000 0.000000 130.994461 -0.000002 0.000001 0.068189 0.000000 0.000000 -68.798111 -16.682583 -0.900786 6.514819 -0.000000 0.000000 39.376926 0.000000 0.000000 
0.000000 9.997749 0.000000 -26.001497 0.000000 0.000000 29.998037 1.997883 -35.001030 19.998167 0.000000 0.000000 -0.124748 -0.292303 14.248363 -10.001463 23.972567 -26.003130 0.071690 0.000000 0.000000 52.569984 -63.651836 -17.957071 -80.591408 -4.643616 16.408657 5.573886 -9.367159 -38.646534 0.000000 0.000000 0.000000 -30.000832 37.995827 -47.000263 0.000000 0.000000 0.000000 0.000000 0.000000 0.000000 -110.024002 0.000000 0.000000 130.994461 -0.000002 0.000001 0.068189 0.000000 0.000000 -68.161728 -16.564390 -0.752745 4.862164 -0.000000 0.000000 39.982952 0.000000 0.000000 
0.000000 9.997749 0.000000 -26.001497 0.000000 0.000000 29.998037 1.997883 -35.001030 19.998167 0.000000 0.000000 -0.126401 -0.296923 14.144222 -10.001462 24.120291 -26.003141 0.071690 0.000000 0.000000 51.938759 -63.452206 -17.876114 -80.715294 -4.627253 16.284895 5.511944 -9.314923 -38.360508 0.000000 0.000000 0.000000 -30.000832 37.995827 -47.000263 0.000000 0.000000 0.000000 0.000000 0.000000 0.000000 -110.024002 0.000000 0.000000 130.994461 -0.000002 0.000001 0.068189 0.000000 0.000000 -67.526909 -16.448053 -0.603784 3.236106 -0.000000 0.000000 40.587940 0.000000 0.000000 
0.000000 9.997749 0.000000 -26.001497 0.000000 0.000000 29.998037 1.997883 -35.001030 19.998167 0.000000 0.000000 -0.128046 -0.301547 14.040073 -10.001461 24.267986 -26.003155 0.071690 0.000000 0.000000 51.311825 -63.251991 -17.800543 -80.839157 -4.610617 16.161139 5.450247 -9.262356 -38.074444 0.000000 0.000000 0.000000 -30.000832 37.995827 -47.000263 0.000000 0.000000 0.000000 0.000000 0.000000 0.000000 -110.024002 0.000000 0.000000 130.994461 -0.000002 0.000001 0.068189 0.000000 0.000000 -66.893669 -16.333578 -0.453941 1.636664 -0.000000 0.000000 41.191868 0.000000 0.000000 
0.000000 9.997749 0.000000 -26.001497 0.000000 0.000000 29.998037 1.997883 -35.001030 19.998167 0.000000 0.000000 -0.129683 -0.306174 13.935918 -10.001457 24.415646 -26.003159 0.071690 0.000000 0.000000 50.689083 -63.051197 -17.730246 -80.963013 -4.593713 16.037395 5.388801 -9.209463 -37.788364 0.000000 0.000000 0.000000 -30.000832 37.995827 -47.000263 0.000000 0.000000 0.000000 0.000000 0.000000 0.000000 -110.024002 0.000000 0.000000 130.994461 -0.000002 0.000001 0.068189 0.000000 0.000000 -66.262070 -16.220976 -0.303252 0.063784 -0.000000 0.000000 41.794682 0.000000 0.000000 
0.000000 9.997749 0.000000 -26.001497 0.000000 0.000000 29.998037 1.997883 -35.001030 19.998167 0.000000 0.000000 -0.131311 -0.310805 13.831758 -10.001456 24.563278 -26.003174 0.071690 0.000000 0.000000 50.070442 -62.849812 -17.665136 -81.086868 -4.576537 15.913665 5.327606 -9.156249 -37.502262 0.000000 0.000000 0.000000 -30.000832 37.995827 -47.000263 0.000000 0.000000 0.000000 0.000000 0.000000 0.000000 -110.024002 0.000000 0.000000 130.994461 -0.000002 0.000001 0.068189 0.000000 0.000000 -65.632118 -16.110256 -0.151755 -1.482600 0.000000 0.000000 42.396362 0.000000 0.000000 
